<?xml version="1.0" encoding="utf-8"?>
<!-- Generator: Adobe Illustrator 28.1.0, SVG Export Plug-In . SVG Version: 6.00 Build 0)  -->
<svg version="1.1" id="Layer_1" xmlns="http://www.w3.org/2000/svg" xmlns:xlink="http://www.w3.org/1999/xlink" x="0px" y="0px"
	 viewBox="0 0 612 116" style="enable-background:new 0 0 612 116;" xml:space="preserve">
<style type="text/css">
	.st0{fill:#034C76;}
</style>
<g>
	<polygon class="st0" points="29.65,17.98 50.14,17.98 82.74,59.86 82.74,17.98 104.47,17.98 104.47,97.22 85.23,97.22 51.39,53.75 
		51.39,97.22 29.65,97.22 	"/>
	<path class="st0" d="M118.51,17.98h63.73v18.68h-42v12h38.03v17.32h-38.03v12.56h42.56v18.68h-64.29V17.98z"/>
	<path class="st0" d="M213.36,37.23h-23.77V17.98h69.5v19.24h-23.77v59.99h-21.96V37.23z"/>
	<path class="st0" d="M261,85.44l12.23-14.6c7.81,6.23,16.53,9.51,25.69,9.51c5.89,0,9.06-2.04,9.06-5.43v-0.23
		c0-3.28-2.6-5.09-13.36-7.58c-16.87-3.85-29.88-8.6-29.88-24.9v-0.23c0-14.72,11.66-25.36,30.67-25.36c13.47,0,24,3.62,32.6,10.53
		l-10.98,15.51c-7.24-5.09-15.17-7.81-22.19-7.81c-5.32,0-7.92,2.26-7.92,5.09v0.23c0,3.62,2.72,5.21,13.7,7.7
		c18.22,3.96,29.54,9.85,29.54,24.68v0.23c0,16.19-12.79,25.81-32.03,25.81C284.09,98.57,270.74,94.16,261,85.44z"/>
	<path class="st0" d="M360.27,67.56l-30.11-49.58h25.02l16.3,28.86l16.41-28.86h24.56l-30.11,49.24v30h-22.07V67.56z"/>
	<path class="st0" d="M419.24,17.98h20.49l32.6,41.88V17.98h21.73v79.23h-19.24l-33.84-43.47v43.47h-21.73V17.98z"/>
	<path class="st0" d="M505.38,57.82V57.6c0-23.09,17.77-41.2,41.77-41.2c16.19,0,26.6,6.79,33.62,16.53l-16.53,12.79
		c-4.53-5.66-9.73-9.28-17.32-9.28c-11.09,0-18.9,9.39-18.9,20.94v0.23c0,11.88,7.81,21.17,18.9,21.17c8.26,0,13.13-3.85,17.88-9.62
		l16.53,11.77c-7.47,10.3-17.54,17.88-35.09,17.88C523.61,98.8,505.38,81.48,505.38,57.82z"/>
</g>
</svg>
